<svg width="51" height="51" viewBox="0 0 51 51" fill="none" xmlns="http://www.w3.org/2000/svg">
<g clip-path="url(#clip0_1_490)">
<path d="M45.2668 0.729858H5.94141C3.17998 0.729858 0.941406 2.96843 0.941406 5.72986V45.0553C0.941406 47.8167 3.17998 50.0553 5.94141 50.0553H45.2668C48.0282 50.0553 50.2668 47.8167 50.2668 45.0553V5.72986C50.2668 2.96843 48.0282 0.729858 45.2668 0.729858Z" fill="#FCFCFC" fill-opacity="0.05" stroke="#4F51BC" stroke-width="0.999995" stroke-linecap="round" stroke-linejoin="round"/>
<path d="M23.5077 37.7842L10.945 29.316C9.53034 28.3624 7.59091 28.7255 6.61314 30.127L6.51552 30.267C5.53775 31.6685 5.89191 33.5777 7.30656 34.5313L19.8692 42.9995C21.2839 43.9531 23.2233 43.59 24.2011 42.1885L24.2987 42.0486C25.2765 40.647 24.9223 38.7378 23.5077 37.7842Z" fill="#000270"/>
<path d="M39.6957 8.95443L18.9076 38.607C17.9277 40.0047 18.2771 41.9126 19.6881 42.8684L19.8759 42.9956C21.2869 43.9514 23.225 43.593 24.2049 42.1953L44.9931 12.5428C45.973 11.145 45.6236 9.23711 44.2126 8.28136L44.0248 8.15413C42.6138 7.19837 40.6756 7.55668 39.6957 8.95443Z" fill="#4F51BC"/>
<path d="M15.5569 16.8512C16.7366 16.8512 17.8616 16.7731 18.9319 16.6168C20.0022 16.4606 21.0803 16.2535 22.1663 15.9957V11.0973H16.1897C16.0959 11.0973 15.9983 11.0973 15.8967 11.0973C15.803 11.0895 15.7131 11.0739 15.6272 11.0504C15.5491 11.0192 15.4827 10.9762 15.428 10.9215C15.3811 10.8668 15.3577 10.7887 15.3577 10.6871C15.3577 10.5856 15.3811 10.5074 15.428 10.4528C15.4827 10.3981 15.5491 10.359 15.6272 10.3356C15.7053 10.3043 15.7913 10.2887 15.885 10.2887C15.9866 10.2809 16.0881 10.277 16.1897 10.277H22.1663C22.4944 10.277 22.717 10.3395 22.8342 10.4645C22.9514 10.5895 23.01 10.8004 23.01 11.0973V15.9957C23.01 16.2379 22.9202 16.4254 22.7405 16.5582C22.5608 16.6832 22.3694 16.7653 22.1663 16.8043C21.01 17.0309 19.8889 17.2223 18.803 17.3785C17.717 17.5426 16.635 17.6246 15.5569 17.6246C14.1038 17.6246 12.8264 17.4996 11.7249 17.2496C10.6311 16.9996 9.71704 16.6051 8.98267 16.066C8.24829 15.5192 7.6936 14.8199 7.3186 13.9684C6.95142 13.109 6.76782 12.0699 6.76782 10.8512C6.76782 9.63245 6.95142 8.59729 7.3186 7.74573C7.6936 6.88635 8.24829 6.18713 8.98267 5.64807C9.71704 5.1012 10.6311 4.70276 11.7249 4.45276C12.8264 4.20276 14.1038 4.07776 15.5569 4.07776C16.5725 4.07776 17.5569 4.17151 18.51 4.35901C19.4631 4.5387 20.4319 4.83167 21.4163 5.23792C21.5413 5.2926 21.6311 5.36292 21.6858 5.44885C21.7405 5.52698 21.7678 5.6051 21.7678 5.68323C21.7678 5.77698 21.7327 5.85901 21.6624 5.92932C21.592 5.99963 21.5022 6.03479 21.3928 6.03479C21.3616 6.03479 21.2874 6.01526 21.1702 5.9762C20.2717 5.6012 19.342 5.31995 18.3811 5.13245C17.4202 4.94495 16.4788 4.8512 15.5569 4.8512C14.1663 4.8512 12.9788 4.96838 11.9944 5.20276C11.01 5.42932 10.2014 5.7887 9.5686 6.28088C8.9436 6.76526 8.48657 7.38635 8.19751 8.14417C7.90845 8.89417 7.76392 9.79651 7.76392 10.8512C7.76392 11.9059 7.90845 12.8121 8.19751 13.5699C8.48657 14.3199 8.9436 14.941 9.5686 15.4332C10.2014 15.9176 11.01 16.277 11.9944 16.5114C12.9788 16.7379 14.1663 16.8512 15.5569 16.8512Z" fill="#000270"/>
<path d="M28.5417 19.1162C28.5417 20.3662 28.3777 21.4092 28.0496 22.2451C27.7214 23.0811 27.2332 23.7529 26.5847 24.2607C25.9363 24.7686 25.1277 25.1318 24.1589 25.3506C23.198 25.5615 22.0808 25.667 20.8074 25.667H12.7449C12.6277 25.667 12.5378 25.667 12.4753 25.667C12.4207 25.6592 12.3777 25.6436 12.3464 25.6201C12.3152 25.5889 12.2957 25.5459 12.2878 25.4912C12.2878 25.4365 12.2878 25.3584 12.2878 25.2568V13.0459C12.2878 12.9287 12.2878 12.8428 12.2878 12.7881C12.2957 12.7256 12.3152 12.6826 12.3464 12.6592C12.3777 12.6357 12.4246 12.624 12.4871 12.624C12.5574 12.6162 12.6511 12.6123 12.7683 12.6123H20.8074C22.0808 12.6123 23.198 12.7217 24.1589 12.9404C25.1277 13.1592 25.9363 13.5264 26.5847 14.042C27.2332 14.5498 27.7214 15.2178 28.0496 16.0459C28.3777 16.874 28.5417 17.8975 28.5417 19.1162ZM27.5457 19.1162C27.5457 18.1084 27.4324 17.2451 27.2058 16.5264C26.9792 15.7998 26.6042 15.2061 26.0808 14.7451C25.5574 14.2764 24.866 13.9326 24.0066 13.7139C23.1472 13.4951 22.0808 13.3857 20.8074 13.3857H13.2839V24.8936H20.8074C22.0808 24.8936 23.1472 24.7842 24.0066 24.5654C24.866 24.3467 25.5574 24.0068 26.0808 23.5459C26.6042 23.0771 26.9792 22.4795 27.2058 21.7529C27.4324 21.0186 27.5457 20.1396 27.5457 19.1162Z" fill="#4F51BC"/>
</g>
<defs>
<clipPath id="clip0_1_490">
<rect width="51" height="51" fill="white"/>
</clipPath>
</defs>
</svg>
